<svg width="24.000000" height="21.000000" viewBox="0 0 24 21" fill="none" xmlns="http://www.w3.org/2000/svg" xmlns:xlink="http://www.w3.org/1999/xlink">
	<desc>
			Created with Pixso.
	</desc>
	<defs/>
	<path id="Vector" d="M0.29 10.7L9.29 19.7C9.48 19.89 9.73 20 10 20C10.26 20 10.51 19.89 10.7 19.7C10.89 19.51 11 19.26 11 19C11 18.73 10.89 18.48 10.7 18.29L3.41 11L23 11C23.26 11 23.51 10.89 23.7 10.7C23.89 10.51 24 10.26 24 10C24 9.73 23.89 9.48 23.7 9.29C23.51 9.1 23.26 9 23 9L3.41 9L10.7 1.7C10.89 1.51 11 1.26 11 1C11 0.73 10.89 0.48 10.7 0.29C10.51 0.1 10.26 -0.01 10 -0.01C9.73 -0.01 9.48 0.1 9.29 0.29L0.29 9.29C0.19 9.38 0.12 9.49 0.07 9.61C0.02 9.73 -0.01 9.86 -0.01 10C-0.01 10.13 0.02 10.26 0.07 10.38C0.12 10.5 0.19 10.61 0.29 10.7Z" fill="#1D1E1C" fill-opacity="1.000000" fill-rule="nonzero"/>
</svg>
