<svg width="25.000000" height="21.000000" viewBox="0 0 25 21" fill="none" xmlns="http://www.w3.org/2000/svg" xmlns:xlink="http://www.w3.org/1999/xlink">
	<desc>
			Created with Pixso.
	</desc>
	<defs/>
	<path id="Vector" d="M23.7 10.7L14.7 19.7C14.51 19.89 14.26 20 14 20C13.73 20 13.48 19.89 13.29 19.7C13.1 19.51 12.99 19.26 12.99 19C12.99 18.73 13.1 18.48 13.29 18.29L20.58 11L1 11C0.73 11 0.48 10.89 0.29 10.7C0.1 10.51 0 10.26 0 10C0 9.73 0.1 9.48 0.29 9.29C0.48 9.1 0.73 9 1 9L20.58 9L13.29 1.7C13.1 1.51 12.99 1.26 12.99 1C12.99 0.73 13.1 0.48 13.29 0.29C13.48 0.1 13.73 -0.01 14 -0.01C14.26 -0.01 14.51 0.1 14.7 0.29L23.7 9.29C23.8 9.38 23.87 9.49 23.92 9.61C23.97 9.73 24 9.86 24 10C24 10.13 23.97 10.26 23.92 10.38C23.87 10.5 23.8 10.61 23.7 10.7Z" fill="#1D1E1C" fill-opacity="1.000000" fill-rule="nonzero"/>
</svg>
