<svg width="24.000000" height="18.000000" viewBox="0 0 24 18" fill="none" xmlns="http://www.w3.org/2000/svg" xmlns:xlink="http://www.w3.org/1999/xlink">
	<desc>
			Created with Pixso.
	</desc>
	<defs/>
	<path id="Vector" d="M24 9C24 9.26 23.89 9.51 23.7 9.7C23.51 9.89 23.26 10 23 10L1 10C0.73 10 0.48 9.89 0.29 9.7C0.1 9.51 0 9.26 0 9C0 8.73 0.1 8.48 0.29 8.29C0.48 8.1 0.73 8 1 8L23 8C23.26 8 23.51 8.1 23.7 8.29C23.89 8.48 24 8.73 24 9ZM1 2L23 2C23.26 2 23.51 1.89 23.7 1.7C23.89 1.51 24 1.26 24 1C24 0.73 23.89 0.48 23.7 0.29C23.51 0.1 23.26 0 23 0L1 0C0.73 0 0.48 0.1 0.29 0.29C0.1 0.48 0 0.73 0 1C0 1.26 0.1 1.51 0.29 1.7C0.48 1.89 0.73 2 1 2ZM23 16L1 16C0.73 16 0.48 16.1 0.29 16.29C0.1 16.48 0 16.73 0 17C0 17.26 0.1 17.51 0.29 17.7C0.48 17.89 0.73 18 1 18L23 18C23.26 18 23.51 17.89 23.7 17.7C23.89 17.51 24 17.26 24 17C24 16.73 23.89 16.48 23.7 16.29C23.51 16.1 23.26 16 23 16Z" fill="#FFFFFF" fill-opacity="1.000000" fill-rule="nonzero"/>
</svg>
